<?xml version="1.0" encoding="utf-8"?>
<!-- Generator: Adobe Illustrator 19.0.1, SVG Export Plug-In . SVG Version: 6.00 Build 0)  -->
<svg version="1.1" id="Layer_1" xmlns="http://www.w3.org/2000/svg" xmlns:xlink="http://www.w3.org/1999/xlink" x="0px" y="0px"
	 viewBox="0 0 300 62.8" enable-background="new 0 0 300 62.8" xml:space="preserve">
<g>
	<path fill="#FFFFFF" d="M124,53.4v-10l-4.1,10h-0.4l-4.1-10v10h-1V42h1.4l3.9,9.3l3.8-9.3h1.5v11.3H124z"/>
	<path fill="#FFFFFF" d="M127.3,49.3c0-2.4,1.5-4.3,3.9-4.3c2.4,0,4,1.9,4,4.3c0,2.4-1.5,4.3-4,4.3
		C128.8,53.6,127.3,51.7,127.3,49.3z M134.2,49.3c0-1.8-1.1-3.5-3-3.5c-1.9,0-3,1.7-3,3.5c0,1.8,1.1,3.5,3,3.5
		C133.1,52.8,134.2,51.1,134.2,49.3z"/>
	<path fill="#FFFFFF" d="M143.5,53.4v-1.3c-0.6,0.8-1.6,1.5-2.9,1.5c-2.2,0-3.7-1.7-3.7-4.3c0-2.6,1.5-4.3,3.7-4.3
		c1.2,0,2.2,0.6,2.9,1.5V42h0.9v11.3H143.5z M143.5,51.3v-4.1c-0.5-0.8-1.5-1.5-2.7-1.5c-1.8,0-2.9,1.5-2.9,3.5c0,2,1.1,3.5,2.9,3.5
		C141.9,52.8,143,52.1,143.5,51.3z"/>
	<path fill="#FFFFFF" d="M146.7,49.3c0-2.4,1.7-4.3,4-4.3c2.5,0,3.9,2,3.9,4.4v0.2h-6.9c0.1,1.8,1.3,3.3,3.2,3.3c1,0,2-0.4,2.7-1.1
		l0.5,0.6c-0.8,0.8-1.9,1.3-3.2,1.3C148.4,53.6,146.7,51.8,146.7,49.3z M150.6,45.7c-1.9,0-2.9,1.7-3,3.1h6
		C153.6,47.5,152.7,45.7,150.6,45.7z"/>
	<path fill="#FFFFFF" d="M156.8,53.4v-8.2h0.9v1.4c0.7-0.9,1.6-1.6,2.8-1.6v1c-0.2,0-0.3,0-0.4,0c-0.8,0-2,0.7-2.3,1.5v6H156.8z"/>
	<path fill="#FFFFFF" d="M167.7,53.4v-5.6c0-1.6-0.8-2.1-2-2.1c-1.1,0-2.1,0.7-2.7,1.4v6.2h-0.9v-8.2h0.9v1.2c0.6-0.7,1.8-1.4,3-1.4
		c1.7,0,2.6,0.8,2.6,2.7v5.7H167.7z"/>
	<path fill="#FFFFFF" d="M171.1,43.2c0-0.4,0.3-0.7,0.7-0.7c0.4,0,0.7,0.3,0.7,0.7s-0.3,0.7-0.7,0.7
		C171.4,43.9,171.1,43.6,171.1,43.2z M171.4,53.4v-8.2h0.9v8.2H171.4z"/>
	<path fill="#FFFFFF" d="M174.6,53.4v-0.7l4.9-6.7h-4.9v-0.8h6v0.7l-4.9,6.7h5v0.8H174.6z"/>
	<path fill="#FFFFFF" d="M182.7,43.2c0-0.4,0.3-0.7,0.7-0.7c0.4,0,0.7,0.3,0.7,0.7s-0.3,0.7-0.7,0.7C183,43.9,182.7,43.6,182.7,43.2
		z M183,53.4v-8.2h0.9v8.2H183z"/>
	<path fill="#FFFFFF" d="M192.1,53.4v-5.6c0-1.6-0.8-2.1-2-2.1c-1.1,0-2.1,0.7-2.7,1.4v6.2h-0.9v-8.2h0.9v1.2c0.6-0.7,1.8-1.4,3-1.4
		c1.7,0,2.6,0.8,2.6,2.7v5.7H192.1z"/>
	<path fill="#FFFFFF" d="M195.8,55.5l0.5-0.7c0.7,0.8,1.5,1.2,2.7,1.2c1.5,0,2.8-0.7,2.8-2.6V52c-0.6,0.8-1.6,1.5-2.9,1.5
		c-2.2,0-3.7-1.6-3.7-4.3c0-2.6,1.5-4.3,3.7-4.3c1.2,0,2.2,0.6,2.9,1.5v-1.3h0.9v8.1c0,2.5-1.7,3.4-3.7,3.4
		C197.7,56.7,196.8,56.5,195.8,55.5z M201.8,51.3v-4c-0.5-0.8-1.6-1.5-2.7-1.5c-1.8,0-2.9,1.5-2.9,3.5c0,2,1.1,3.5,2.9,3.5
		C200.3,52.8,201.4,52.1,201.8,51.3z"/>
	<path fill="#FFFFFF" d="M209.9,53.4V42h1v11.3H209.9z"/>
	<path fill="#FFFFFF" d="M219.2,53.4v-5.6c0-1.6-0.8-2.1-2-2.1c-1.1,0-2.1,0.7-2.7,1.4v6.2h-0.9v-8.2h0.9v1.2c0.6-0.7,1.8-1.4,3-1.4
		c1.7,0,2.6,0.8,2.6,2.7v5.7H219.2z"/>
	<path fill="#FFFFFF" d="M222.1,52.3l0.5-0.7c0.5,0.7,1.5,1.2,2.7,1.2c1.4,0,2.2-0.7,2.2-1.7c0-2.2-5.2-1-5.2-3.9
		c0-1.3,1.1-2.3,2.9-2.3c1.4,0,2.3,0.5,2.9,1.2l-0.5,0.6c-0.5-0.6-1.4-1.1-2.4-1.1c-1.3,0-2.1,0.6-2.1,1.5c0,2.1,5.2,0.8,5.2,4
		c0,1.3-1,2.4-3.1,2.4C224,53.6,222.9,53.2,222.1,52.3z"/>
	<path fill="#FFFFFF" d="M236.2,53.4v-1.2c-0.7,0.7-1.8,1.4-3,1.4c-1.7,0-2.6-0.8-2.6-2.6v-5.8h0.9v5.6c0,1.6,0.8,2,2,2
		c1.1,0,2.1-0.6,2.7-1.4v-6.3h0.9v8.2H236.2z"/>
	<path fill="#FFFFFF" d="M239.8,53.4v-8.2h0.9v1.4c0.7-0.9,1.6-1.6,2.8-1.6v1c-0.2,0-0.3,0-0.4,0c-0.8,0-2,0.7-2.3,1.5v6H239.8z"/>
	<path fill="#FFFFFF" d="M250.4,53.4v-1c-0.7,0.8-1.6,1.2-2.8,1.2c-1.4,0-2.9-1-2.9-2.7c0-1.8,1.4-2.7,2.9-2.7
		c1.1,0,2.1,0.4,2.8,1.2v-1.7c0-1.2-1-1.9-2.2-1.9c-1,0-1.8,0.4-2.6,1.2l-0.5-0.6c0.8-0.9,1.8-1.4,3.2-1.4c1.7,0,3,0.8,3,2.6v5.8
		H250.4z M250.4,51.8V50c-0.6-0.7-1.5-1.1-2.5-1.1c-1.4,0-2.2,0.9-2.2,2c0,1.2,0.9,2,2.2,2C248.9,52.9,249.9,52.5,250.4,51.8z"/>
	<path fill="#FFFFFF" d="M259.6,53.4v-5.6c0-1.6-0.8-2.1-2-2.1c-1.1,0-2.1,0.7-2.7,1.4v6.2h-0.9v-8.2h0.9v1.2c0.6-0.7,1.8-1.4,3-1.4
		c1.7,0,2.6,0.8,2.6,2.7v5.7H259.6z"/>
	<path fill="#FFFFFF" d="M262.8,49.3c0-2.4,1.6-4.3,4-4.3c1.4,0,2.2,0.6,2.9,1.4l-0.6,0.5c-0.6-0.8-1.3-1.1-2.2-1.1
		c-1.9,0-3.1,1.5-3.1,3.5s1.2,3.5,3.1,3.5c0.9,0,1.6-0.3,2.2-1.2l0.6,0.5c-0.7,0.8-1.5,1.4-2.9,1.4
		C264.4,53.6,262.8,51.7,262.8,49.3z"/>
	<path fill="#FFFFFF" d="M271.2,49.3c0-2.4,1.7-4.3,4-4.3c2.5,0,3.9,2,3.9,4.4v0.2h-6.9c0.1,1.8,1.3,3.3,3.2,3.3c1,0,2-0.4,2.7-1.1
		l0.5,0.6c-0.8,0.8-1.9,1.3-3.2,1.3C272.9,53.6,271.2,51.8,271.2,49.3z M275.1,45.7c-1.9,0-2.9,1.7-3,3.1h6
		C278.1,47.5,277.2,45.7,275.1,45.7z"/>
</g>
<path fill="#FFFFFF" d="M25.1,53.1c0,0,3.2-1.5,6.4-4.1c1.5-1.3,3.1-2.8,4.3-4.5c1.5,2.2,3.5,4.3,5.6,6.3c4.9,4.7,10.4,8.8,10.4,8.8
	s-3.2-3.1-6.4-7.1c-3.2-4-6.5-9.2-6.7-13.5c-0.2-4.7,4.3-12,10-19.3c7.1-9.2,15.7-18.5,15.7-18.5s-9.5,8.4-17.9,17
	c-4.9,5-9.2,10.1-11.6,14.2c-2.7-3.9-6.9-8-10.7-11.4c-5.1-4.6-9.6-7.7-9.6-7.7s4.1,3.9,8.5,9.2c4.3,5.3,8.8,11.7,9.2,16.1
	c0.4,4.1-1.7,8.1-3.6,10.7C26.9,51.6,25.1,53.1,25.1,53.1z"/>
<circle fill="#FFFFFF" cx="34.3" cy="20.9" r="4.3"/>
<g>
	<path fill="#FFFFFF" d="M97.3,25.2c-0.6-1.2-1.4-2-2.5-2.7c-1.1-0.6-2.5-0.9-4-0.9c-1.6,0-2.9,0.3-4,0.9c-1.1,0.6-1.9,1.5-2.5,2.7
		c-0.6,1.2-0.9,2.6-0.9,4.2v16.1c0,1.7,0.3,3.1,0.9,4.2c0.6,1.2,1.4,2,2.5,2.7c1.1,0.6,2.5,0.9,4,0.9c1.6,0,2.9-0.3,4-0.9
		c1.1-0.6,1.9-1.5,2.5-2.7c0.6-1.2,0.9-2.6,0.9-4.2V29.4C98.2,27.8,97.9,26.4,97.3,25.2z M93.3,45.9c0,1.1-0.2,1.9-0.7,2.4
		c-0.5,0.5-1.1,0.7-1.8,0.7c-0.8,0-1.4-0.2-1.8-0.7c-0.4-0.5-0.7-1.3-0.7-2.4V29.1c0-1.1,0.2-1.9,0.7-2.4c0.5-0.5,1.1-0.7,1.8-0.7
		c0.8,0,1.4,0.2,1.8,0.7c0.4,0.5,0.7,1.3,0.7,2.4V45.9z"/>
	<polygon fill="#FFFFFF" points="7.2,53 20.5,53 20.5,48.6 12.1,48.6 12.1,39.5 18.8,39.5 18.8,35.1 12.1,35.1 12.1,26.4 20.5,26.4 
		20.5,22 7.2,22 	"/>
	<polygon fill="#FFFFFF" points="50.7,26.4 59.5,26.4 50.3,48.7 50.3,53 64.6,53 64.6,48.6 55.3,48.6 64.6,26.3 64.6,22 50.7,22 	
		"/>
	<polygon fill="#FFFFFF" points="67.4,53 80.7,53 80.7,48.6 72.3,48.6 72.3,39.5 79,39.5 79,35.1 72.3,35.1 72.3,26.4 80.7,26.4 
		80.7,22 67.4,22 	"/>
</g>
</svg>
